<svg width="18" height="18" viewBox="0 0 18 18" fill="none" xmlns="http://www.w3.org/2000/svg">
<path d="M7.98452 11.7834C8.10473 11.9046 8.25832 11.9873 8.4257 12.0209C8.59308 12.0544 8.76667 12.0374 8.92434 11.9719C9.082 11.9065 9.2166 11.7955 9.31097 11.6533C9.40534 11.511 9.45521 11.3439 9.45422 11.1732C9.45105 10.9456 9.36203 10.7276 9.20497 10.5629C9.08411 10.4437 8.93063 10.3629 8.7639 10.3308C8.59717 10.2987 8.42466 10.3166 8.26814 10.3825C8.16264 10.4234 8.06626 10.4847 7.98452 10.5629C7.82746 10.7276 7.73844 10.9456 7.73527 11.1732C7.73462 11.2863 7.7563 11.3984 7.79907 11.5031C7.84184 11.6078 7.90486 11.7031 7.98452 11.7834ZM15.3932 11.6115H11.4998C11.2718 11.6115 11.0532 11.7021 10.892 11.8632C10.7308 12.0244 10.6403 12.243 10.6403 12.471C10.6403 12.6989 10.7308 12.9175 10.892 13.0787C11.0532 13.2399 11.2718 13.3304 11.4998 13.3304H13.5625C12.6145 14.3212 11.3918 15.0058 10.0517 15.2964C8.71157 15.587 7.31517 15.4702 6.04191 14.9611C4.76866 14.452 3.67672 13.5738 2.90639 12.4393C2.13606 11.3049 1.72254 9.96601 1.71895 8.59474C1.71895 8.3668 1.6284 8.14819 1.46721 7.987C1.30603 7.82582 1.08742 7.73527 0.859474 7.73527C0.631528 7.73527 0.412917 7.82582 0.251734 7.987C0.0905515 8.14819 0 8.3668 0 8.59474C0.00454375 10.2731 0.500404 11.9134 1.42639 13.3133C2.35237 14.7131 3.66795 15.8112 5.21077 16.472C6.75359 17.1328 8.45614 17.3275 10.1083 17.0319C11.7605 16.7363 13.2899 15.9635 14.5079 14.8087V16.33C14.5079 16.558 14.5985 16.7766 14.7597 16.9378C14.9208 17.0989 15.1395 17.1895 15.3674 17.1895C15.5954 17.1895 15.814 17.0989 15.9751 16.9378C16.1363 16.7766 16.2269 16.558 16.2269 16.33V12.4624C16.2248 12.2403 16.1368 12.0277 15.9814 11.8691C15.8259 11.7105 15.6152 11.6182 15.3932 11.6115ZM8.59474 0C6.39138 0.00628464 4.27459 0.858541 2.68156 2.38074V0.859474C2.68156 0.631528 2.59101 0.412917 2.42983 0.251734C2.26864 0.0905515 2.05003 0 1.82209 0C1.59414 0 1.37553 0.0905515 1.21435 0.251734C1.05316 0.412917 0.962611 0.631528 0.962611 0.859474V4.72711C0.962611 4.95506 1.05316 5.17367 1.21435 5.33485C1.37553 5.49603 1.59414 5.58658 1.82209 5.58658H5.68972C5.91767 5.58658 6.13628 5.49603 6.29746 5.33485C6.45864 5.17367 6.5492 4.95506 6.5492 4.72711C6.5492 4.49916 6.45864 4.28055 6.29746 4.11937C6.13628 3.95819 5.91767 3.86764 5.68972 3.86764H3.62698C4.57452 2.87741 5.79637 2.19295 7.1357 1.90211C8.47503 1.61127 9.87071 1.72732 11.1436 2.23537C12.4165 2.74343 13.5085 3.62029 14.2795 4.75341C15.0505 5.88654 15.4652 7.22421 15.4705 8.59474C15.4705 8.82269 15.5611 9.0413 15.7223 9.20249C15.8835 9.36367 16.1021 9.45422 16.33 9.45422C16.558 9.45422 16.7766 9.36367 16.9378 9.20249C17.0989 9.0413 17.1895 8.82269 17.1895 8.59474C17.1895 7.46607 16.9672 6.34844 16.5353 5.30568C16.1033 4.26292 15.4702 3.31544 14.6721 2.51734C13.8741 1.71925 12.9266 1.08616 11.8838 0.654236C10.841 0.22231 9.72342 0 8.59474 0ZM8.59474 9.45422C8.82269 9.45422 9.0413 9.36367 9.20249 9.20249C9.36367 9.0413 9.45422 8.82269 9.45422 8.59474V6.01632C9.45422 5.78837 9.36367 5.56976 9.20249 5.40858C9.0413 5.2474 8.82269 5.15685 8.59474 5.15685C8.3668 5.15685 8.14819 5.2474 7.987 5.40858C7.82582 5.56976 7.73527 5.78837 7.73527 6.01632V8.59474C7.73527 8.82269 7.82582 9.0413 7.987 9.20249C8.14819 9.36367 8.3668 9.45422 8.59474 9.45422Z" fill="#6D0404"/>
</svg>
