<svg fill="none" height="24" width="23" xmlns="http://www.w3.org/2000/svg"><path d="m11.829 22.501c0-.141-.071-.212-.213-.212-.521 0-.97-.188-1.346-.564s-.564-.825-.564-1.347c0-.141-.07-.212-.212-.212s-.213.07-.213.212c0 .646.228 1.197.684 1.652a2.25 2.25 0 0 0 1.651.683c.142 0 .213-.07.213-.212zm-8.836-3.82h17.247c-2.353-2.654-3.529-6.334-3.529-11.04 0-.45-.106-.915-.318-1.392s-.518-.933-.916-1.367c-.398-.433-.935-.79-1.612-1.068-.676-.278-1.426-.418-2.249-.418-.822 0-1.572.14-2.248.418-.677.279-1.214.635-1.612 1.068a5.07 5.07 0 0 0 -.916 1.368 3.419 3.419 0 0 0 -.318 1.393c0 4.705-1.177 8.385-3.53 11.038zm19.662 0c0 .46-.168.857-.504 1.193s-.735.504-1.195.504h-5.943c0 .938-.332 1.738-.995 2.402a3.273 3.273 0 0 1 -2.402.995 3.273 3.273 0 0 1 -2.4-.995 3.273 3.273 0 0 1 -.996-2.402h-5.944c-.46 0-.858-.168-1.194-.504a1.632 1.632 0 0 1 -.504-1.194c.442-.371.845-.76 1.207-1.167.363-.407.739-.936 1.128-1.586.39-.65.719-1.35.989-2.103.27-.751.49-1.662.663-2.733.172-1.07.259-2.22.259-3.45 0-1.344.517-2.593 1.552-3.747 1.034-1.154 2.392-1.855 4.073-2.104a1.32 1.32 0 0 1 -.106-.517c0-.354.124-.655.371-.903.248-.247.549-.371.902-.371s.655.124.903.371c.247.248.371.549.371.903 0 .177-.035.349-.106.517 1.68.248 3.038.949 4.073 2.103s1.552 2.403 1.552 3.748c0 1.23.086 2.38.259 3.45.172 1.07.394 1.98.663 2.732s.6 1.453.989 2.103.765 1.179 1.127 1.586c.363.406.765.796 1.208 1.167z" fill="#092fb6"/></svg>