<svg fill="none" height="18" width="18" xmlns="http://www.w3.org/2000/svg"><path d="M7.985 11.783a.86.86 0 0 0 1.47-.61.903.903 0 0 0-.25-.61.86.86 0 0 0-.937-.18.86.86 0 0 0-.283.18.903.903 0 0 0-.25.61.86.86 0 0 0 .25.61zm7.408-.171H11.5a.86.86 0 0 0 0 1.718h2.063A6.876 6.876 0 0 1 1.719 8.595a.86.86 0 0 0-1.719 0 8.595 8.595 0 0 0 14.508 6.214v1.521a.86.86 0 0 0 1.719 0v-3.868a.86.86 0 0 0-.834-.85zM8.595 0a8.595 8.595 0 0 0-5.913 2.38V.86a.86.86 0 1 0-1.72 0v3.867a.86.86 0 0 0 .86.86H5.69a.86.86 0 1 0 0-1.72H3.627A6.876 6.876 0 0 1 15.47 8.596a.86.86 0 0 0 1.72 0A8.595 8.595 0 0 0 8.594 0zm0 9.454a.86.86 0 0 0 .86-.86V6.017a.86.86 0 1 0-1.72 0v2.579a.86.86 0 0 0 .86.86z" fill="#6d0404"/></svg>