<svg xmlns="http://www.w3.org/2000/svg" xmlns:xlink="http://www.w3.org/1999/xlink" fill="none" height="26" width="26" xmlns:v="https://vecta.io/nano"><linearGradient id="A" gradientUnits="userSpaceOnUse" x1="3.25" x2="21.125" y1="4.873" y2="22.748"><stop offset="0" stop-color="#0a229f"/></linearGradient><clipPath id="B"><path d="M0 0h26v26H0z"/></clipPath><g clip-path="url(#B)"><use xlink:href="#D" fill="#081452"/><use xlink:href="#D" fill="url(#A)"/><g fill="#081452"><path d="M19.62 5.954c.666 1.722.24 2.993.11 3.31.808.885 1.296 2.013 1.296 3.394 0 4.856-2.945 5.925-5.75 6.238.452.39.855 1.162.855 2.342l-.015 3.468c0 .339.227.733.865.608 5-1.675 8.605-6.411 8.605-11.995 0-1.501-.262-2.94-.74-4.276-1.736-1.828-3.669-3.045-5.227-3.089zm-9.422 13.62a2.17 2.17 0 0 1 .496-.668c-1.533-.176-3.106-.585-4.217-1.714.854 1.423 2.246 2.07 3.721 2.381zm-9.136-5.4c0-6.985 5.64-12.645 12.593-12.645 3.862 0 7.316 1.747 9.625 4.494C21 2.789 17.246.677 13 .677 6.045.677.406 6.337.406 13.32a12.61 12.61 0 0 0 2.984 8.166 12.606 12.606 0 0 1-2.328-7.313z"/></g><path d="M16.768 22.099c0-1.18-.402-1.952-.855-2.343 2.806-.313 5.751-1.382 5.751-6.238a4.89 4.89 0 0 0-1.296-3.394c.13-.32.564-1.605-.125-3.345 0 0-.13-.04-.4-.024.294 1.312-.022 2.25-.13 2.517a4.89 4.89 0 0 1 1.295 3.393c0 4.857-2.945 5.926-5.75 6.24.452.39.855 1.16.855 2.34l-.015 3.469c0 .298.177.638.656.63l.014-3.245zm-10.4-.15c.264.545 1.153 1.849 3.498 1.574a123.4 123.4 0 0 1-.007-.961c-1.81.395-2.878-.07-3.492-.613z" fill="#478ec4"/><path d="M6.764 20.278a3.053 3.053 0 0 0-.444-.525c.14.208.289.382.444.525z" fill="#081452"/></g><defs ><path id="D" d="M13 .677C6.045.677.406 6.337.406 13.32A12.64 12.64 0 0 0 9.02 25.318c.63.116.86-.274.86-.61l-.018-2.15c-3.504.765-4.243-1.695-4.243-1.695-.572-1.46-1.397-1.849-1.397-1.849-1.144-.784.086-.77.086-.77 1.263.09 1.928 1.304 1.928 1.304 1.125 1.932 2.949 1.374 3.666 1.05.114-.817.44-1.374.8-1.69-2.796-.32-5.736-1.404-5.736-6.248 0-1.38.49-2.51 1.296-3.394-.13-.32-.562-1.605.123-3.345 0 0 1.057-.34 3.463 1.296A12.06 12.06 0 0 1 13 6.791c1.07.006 2.147.145 3.153.426 2.404-1.636 3.46-1.296 3.46-1.296.687 1.74.255 3.025.125 3.345.808.885 1.295 2.013 1.295 3.394 0 4.857-2.944 5.925-5.75 6.239.452.39.855 1.161.855 2.341l-.015 3.468c0 .34.227.733.865.608 5-1.675 8.605-6.41 8.605-11.995C25.594 6.337 19.954.677 13 .677z"/></defs></svg>